<svg xmlns="http://www.w3.org/2000/svg" width="29" height="21" viewBox="34 23 29 21"><g data-name="Group 807"><path d="M36.5 23h24a2.5 2.5 0 0 1 2.5 2.5 2.5 2.5 0 0 1-2.5 2.5h-24a2.5 2.5 0 0 1-2.5-2.5 2.5 2.5 0 0 1 2.5-2.5z" fill="#fff" fill-rule="evenodd" data-name="Rectangle 358"/><path d="M36.5 31h24a2.5 2.5 0 0 1 2.5 2.5 2.5 2.5 0 0 1-2.5 2.5h-24a2.5 2.5 0 0 1-2.5-2.5 2.5 2.5 0 0 1 2.5-2.5z" fill="#fff" fill-rule="evenodd" data-name="Rectangle 359"/><path d="M36.5 39h24a2.5 2.5 0 0 1 2.5 2.5 2.5 2.5 0 0 1-2.5 2.5h-24a2.5 2.5 0 0 1-2.5-2.5 2.5 2.5 0 0 1 2.5-2.5z" fill="#fff" fill-rule="evenodd" data-name="Rectangle 360"/></g></svg>