<svg xmlns="http://www.w3.org/2000/svg" width="21.519" height="21.519" viewBox="141.131 3.314 21.519 21.519"><path d="M147.587 20.53a2.149 2.149 0 0 0-2.141 2.151c0 1.184.957 2.152 2.14 2.152a2.158 2.158 0 0 0 2.153-2.152 2.158 2.158 0 0 0-2.152-2.151ZM141.13 3.314v2.152h2.152l3.873 8.167-1.452 2.636a2.08 2.08 0 0 0-.27 1.033c0 1.183.97 2.152 2.153 2.152h12.911v-2.152h-12.46a.266.266 0 0 1-.268-.27l.032-.128.968-1.754h8.016c.807 0 1.517-.441 1.883-1.108l3.852-6.983a1.08 1.08 0 0 0-.947-1.592h-15.913l-1.012-2.153h-3.518Zm17.215 17.216a2.149 2.149 0 0 0-2.14 2.151c0 1.184.957 2.152 2.14 2.152a2.158 2.158 0 0 0 2.152-2.152 2.158 2.158 0 0 0-2.152-2.151Z" fill="#fff" fill-rule="evenodd" data-name="ic_local_grocery_store_24px"/></svg>